#!OML:ASF X:\für Bonn\!DataBase\2005_08_11_Bastian_Final\c3d\Bastian.ASF
:FULLY-SPECIFIED
:DEGREES
62
root 5.03866 16.8967 -2.94189 184.305 82.7697 -160.052
lowerback 26.3477 -2.9332 4.94095
upperback 15.7396 -0.798659 1.53674
thorax 2.92818 0.680528 -0.89633
lowerneck 0.309716 -10.7856 -5.82452
upperneck 4.59308 -15.0246 15.9237
head 2.98244 -7.22971 5.18767
rclavicle 2.54444e-014 -3.57812e-014
rhumerus -2.65437 11.9042 -74.9319
rradius 28.5436
rwrist -2.00726
rhand -27.947 -0.20481
rfingers 7.12502
rthumb -1.33475 -30.1804
lclavicle 2.54444e-014 -3.57812e-014
lhumerus -11.2787 -21.9371 86.8809
lradius 25.4891
lwrist 20.2124
lhand -12.9111 -7.36105
lfingers 7.12502
lthumb 13.1788 22.2024
rfemur -14.6179 -10.5841 19.5
rtibia 76.4379
rfoot -8.94116 0.883787
rtoes -5.06232
lfemur -11.1169 2.50666 -20.7659
ltibia 31.6712
lfoot 2.5445 -6.20537
ltoes -3.65243
63
root 5.07007 16.8926 -2.96385 184.727 82.5856 -159.606
lowerback 27.0487 -3.14592 5.18295
upperback 16.0088 -0.886554 1.71977
thorax 2.91945 0.682921 -0.801556
lowerneck 0.171823 -10.8894 -5.74396
upperneck 4.31831 -15.1307 15.787
head 2.91951 -7.29493 5.1246
rclavicle -2.38542e-014 -3.97569e-015
rhumerus -1.73012 11.95 -74.391
rradius 28.3981
rwrist -1.87403
rhand -28.1095 -0.294831
rfingers 7.12502
rthumb -1.4917 -30.2694
lclavicle -2.38542e-014 -3.97569e-015
lhumerus -10.5289 -22.1801 86.6724
lradius 26.5548
lwrist 20.3757
lhand -12.9292 -7.49781
lfingers 7.12502
lthumb 13.1614 22.0668
rfemur -15.5875 -10.3906 19.6364
rtibia 75.8099
rfoot -9.76582 1.21553
rtoes -5.38974
lfemur -11.1854 2.64131 -20.7278
ltibia 32.0871
lfoot 2.47065 -6.46361
ltoes -2.60562
64
root 5.10006 16.8881 -2.98658 185.203 82.4281 -159.137
lowerback 27.7387 -3.34875 5.42464
upperback 16.2633 -0.958102 1.90913
thorax 2.90473 0.69228 -0.701598
lowerneck 0.0898728 -11.0018 -5.56883
upperneck 3.96899 -15.2353 15.538
head 2.80847 -7.36663 5.02017
rclavicle 1.55052e-014 5.96354e-014
rhumerus -0.811903 11.9987 -73.8228
rradius 28.2399
rwrist -1.82325
rhand -28.2763 -0.368178
rfingers 7.12502
rthumb -1.65272 -30.3415
lclavicle 1.55052e-014 5.96354e-014
lhumerus -9.88432 -22.6111 86.4674
lradius 27.8082
lwrist 20.8883
lhand -13.0602 -7.58185
lfingers 7.12502
lthumb 13.0351 21.9909
rfemur -16.503 -10.1592 19.7597
rtibia 74.9758
rfoot -10.4337 1.50586
rtoes -6.36456
lfemur -11.3011 2.77356 -20.6991
ltibia 32.5267
lfoot 2.32335 -6.72971
ltoes -2.05473
65
root 5.12828 16.8801 -3.00772 185.779 82.2611 -158.56
lowerback 28.4441 -3.55714 5.70633
upperback 16.5091 -1.0191 2.08741
thorax 2.87824 0.710973 -0.636684
lowerneck 0.0899449 -11.0969 -5.41379
upperneck 3.56295 -15.315 15.3742
head 2.67233 -7.43001 4.95313
rclavicle 1.47101e-014 -3.89618e-014
rhumerus 0.0650392 12.0796 -73.2654
rradius 28.0995
rwrist -1.7826
rhand -28.4803 -0.444495
rfingers 7.12502
rthumb -1.84975 -30.4162
lclavicle 1.47101e-014 -3.89618e-014
lhumerus -9.25349 -23.0086 86.2356
lradius 29.0746
lwrist 21.4243
lhand -13.2016 -7.72453
lfingers 7.12502
lthumb 12.8989 21.8568
rfemur -17.299 -9.8899 19.9195
rtibia 73.9226
rfoot -11.092 1.60289
rtoes -7.59493
lfemur -11.4392 2.93476 -20.641
ltibia 32.9935
lfoot 2.16475 -7.01715
ltoes -1.61493
66
root 5.15545 16.8697 -3.02822 185.976 82.0621 -158.372
lowerback 29.1512 -3.76695 5.93741
upperback 16.7523 -1.08465 2.27988
thorax 2.85348 0.723751 -0.524304
lowerneck 0.122619 -11.1664 -5.44281
upperneck 3.1354 -15.3697 15.464
head 2.55639 -7.47997 4.99251
rclavicle -1.59028e-015 3.33958e-014
rhumerus 0.927231 12.2106 -72.6455
rradius 28.0284
rwrist -1.81617
rhand -28.6569 -0.571779
rfingers 7.12502
rthumb -2.02036 -30.542
lclavicle -1.59028e-015 3.33958e-014
lhumerus -8.63595 -23.3812 86.0266
lradius 30.3661
lwrist 22.0353
lhand -13.3447 -7.871
lfingers 7.12502
lthumb 12.7609 21.719
rfemur -17.9862 -9.62382 20.0119
rtibia 72.6796
rfoot -11.7071 1.56214
rtoes -8.8146
lfemur -11.6313 3.0659 -20.6362
ltibia 33.5176
lfoot 1.99955 -7.32668
ltoes -1.14312
67
root 5.1808 16.8552 -3.04781 186.204 81.8492 -158.169
lowerback 29.868 -3.98838 6.17029
upperback 16.9771 -1.15757 2.47761
thorax 2.80785 0.731522 -0.403116
lowerneck 0.161382 -11.2297 -5.44176
upperneck 2.71146 -15.4131 15.4753
head 2.43072 -7.52569 5.00593
rclavicle -1.23246e-014 3.18055e-014
rhumerus 1.82458 12.2348 -72.0503
rradius 27.8818
rwrist -1.73244
rhand -28.7811 -0.624562
rfingers 7.12502
rthumb -2.14031 -30.5936
lclavicle -1.23246e-014 3.18055e-014
lhumerus -8.07758 -23.724 85.8288
lradius 31.7184
lwrist 22.6508
lhand -13.5386 -8.00775
lfingers 7.12502
lthumb 12.5739 21.5939
rfemur -18.6237 -9.36135 20.11
rtibia 71.306
rfoot -12.3332 1.40254
rtoes -10.278
lfemur -11.8763 3.17654 -20.6242
ltibia 34.0866
lfoot 1.82502 -7.6314
ltoes -0.543288
